<svg width="21" height="20" viewBox="0 0 21 20" fill="none" xmlns="http://www.w3.org/2000/svg">
<path d="M4.66667 8.33325C3.75 8.33325 3 9.08325 3 9.99992C3 10.9166 3.75 11.6666 4.66667 11.6666C5.58333 11.6666 6.33333 10.9166 6.33333 9.99992C6.33333 9.08325 5.58333 8.33325 4.66667 8.33325Z" stroke="#919191" stroke-width="1.5"/>
<path d="M16.3332 8.33325C15.4165 8.33325 14.6665 9.08325 14.6665 9.99992C14.6665 10.9166 15.4165 11.6666 16.3332 11.6666C17.2498 11.6666 17.9998 10.9166 17.9998 9.99992C17.9998 9.08325 17.2498 8.33325 16.3332 8.33325Z" stroke="#919191" stroke-width="1.5"/>
<path d="M10.5002 8.33325C9.5835 8.33325 8.8335 9.08325 8.8335 9.99992C8.8335 10.9166 9.5835 11.6666 10.5002 11.6666C11.4168 11.6666 12.1668 10.9166 12.1668 9.99992C12.1668 9.08325 11.4168 8.33325 10.5002 8.33325Z" stroke="#919191" stroke-width="1.5"/>
</svg>
