<svg width="48" height="48" viewBox="0 0 48 48" fill="none" xmlns="http://www.w3.org/2000/svg">
<path d="M36 32L39.6796 35.1716C41.2266 36.505 42 37.1716 42 38C42 38.8284 41.2266 39.495 39.6796 40.8284L36 44" stroke="#484848" stroke-width="2.5" stroke-linecap="round" stroke-linejoin="round"/>
<path d="M28 32L24.3204 35.1716C22.7734 36.505 22 37.1716 22 38C22 38.8284 22.7734 39.495 24.3204 40.8284L28 44" stroke="#484848" stroke-width="2.5" stroke-linecap="round" stroke-linejoin="round"/>
<path d="M40 26.0064V15.6398C40 12.2523 40 10.5586 39.464 9.20582C38.6026 7.0311 36.7804 5.31568 34.4704 4.50456C33.0336 4 31.2346 4 27.6364 4C21.3396 4 18.1913 4 15.6767 4.88296C11.6343 6.30244 8.44562 9.3044 6.93788 13.1102C6 15.4775 6 18.4415 6 24.3696V29.462C6 35.6026 6 38.6728 7.6954 40.805C8.18116 41.416 8.75724 41.9584 9.40614 42.4156C11.2301 43.7012 13.7004 43.9514 18 44" stroke="#484848" stroke-width="2.5" stroke-linecap="round" stroke-linejoin="round"/>
<path d="M6 24C6 20.318 8.98476 17.3333 12.6667 17.3333C13.9982 17.3333 15.5681 17.5667 16.8627 17.2198C18.013 16.9115 18.9115 16.013 19.2198 14.8627C19.5667 13.5681 19.3333 11.9982 19.3333 10.6667C19.3333 6.98476 22.3182 4 26 4" stroke="#484848" stroke-width="2.5" stroke-linecap="round" stroke-linejoin="round"/>
</svg>
