<svg width="48" height="48" viewBox="0 0 48 48" fill="none" xmlns="http://www.w3.org/2000/svg">
<path d="M22 12H42" stroke="#3F3E3E" stroke-width="2.5" stroke-linecap="round"/>
<path d="M22 24H42" stroke="#3F3E3E" stroke-width="2.5" stroke-linecap="round"/>
<path d="M22 36H42" stroke="#3F3E3E" stroke-width="2.5" stroke-linecap="round"/>
<path d="M6 30H9C9.55758 30 9.83638 30 10.0682 30.0462C11.0203 30.2354 11.7645 30.9798 11.9539 31.9318C12 32.1636 12 32.4424 12 33C12 33.5576 12 33.8364 11.9539 34.0682C11.7645 35.0202 11.0203 35.7646 10.0682 35.9538C9.83638 36 9.55758 36 9 36C8.44242 36 8.16362 36 7.93178 36.0462C6.97972 36.2354 6.2355 36.9798 6.04612 37.9318C6 38.1636 6 38.4424 6 39V40.8C6 41.3656 6 41.6486 6.17574 41.8242C6.35148 42 6.63432 42 7.2 42H12" stroke="#3F3E3E" stroke-width="2.5" stroke-linecap="round" stroke-linejoin="round"/>
<path d="M6 6H8.4C8.73138 6 9 6.26862 9 6.6V18M9 18H6M9 18H12" stroke="#3F3E3E" stroke-width="2.5" stroke-linecap="round" stroke-linejoin="round"/>
</svg>
