<svg width="48" height="48" viewBox="0 0 48 48" fill="none" xmlns="http://www.w3.org/2000/svg">
<path d="M15 18C16.6569 18 18 16.6569 18 15C18 13.3431 16.6569 12 15 12C13.3431 12 12 13.3431 12 15C12 16.6569 13.3431 18 15 18Z" stroke="#484848" stroke-width="2.5" stroke-linecap="round" stroke-linejoin="round"/>
<path d="M5 24C5 15.0433 5 10.565 7.78248 7.78248C10.565 5 15.0433 5 24 5C32.9566 5 37.435 5 40.2176 7.78248C43 10.565 43 15.0433 43 24C43 32.9566 43 37.435 40.2176 40.2176C37.435 43 32.9566 43 24 43C15.0433 43 10.565 43 7.78248 40.2176C5 37.435 5 32.9566 5 24Z" stroke="#484848" stroke-width="2.5"/>
<path d="M10 41.9999C18.7449 31.5499 28.5482 17.768 42.995 27.0847" stroke="#484848" stroke-width="2.5"/>
</svg>
