<svg width="48" height="48" viewBox="0 0 48 48" fill="none" xmlns="http://www.w3.org/2000/svg">
<path d="M27.4552 6.88836L30.9748 13.9858C31.4548 14.9737 32.7346 15.9214 33.8146 16.1029L40.1938 17.1715C44.2734 17.8571 45.2334 20.8412 42.2936 23.785L37.3342 28.7854C36.4942 29.6322 36.0344 31.2654 36.2942 32.435L37.7142 38.625C38.834 43.5246 36.2542 45.42 31.9548 42.8592L25.9754 39.2904C24.8956 38.6452 23.1158 38.6452 22.0158 39.2904L16.0365 42.8592C11.757 45.42 9.1573 43.5044 10.2772 38.625L11.697 32.435C11.957 31.2654 11.497 29.6322 10.6571 28.7854L5.69768 23.785C2.778 20.8412 3.7179 17.8571 7.79744 17.1715L14.1767 16.1029C15.2366 15.9214 16.5165 14.9737 16.9964 13.9858L20.516 6.88836C22.4358 3.03721 25.5554 3.03721 27.4552 6.88836Z" stroke="#484848" stroke-width="2.5" stroke-linecap="round" stroke-linejoin="round"/>
</svg>
